<svg width="20" height="18" viewBox="0 0 20 18" fill="none" xmlns="http://www.w3.org/2000/svg">
<g clip-path="url(#clip0_165_2)">
<path d="M7.25977 9.00003C8.36434 9.00003 9.25977 8.13658 9.25977 7.07145C9.25977 6.00633 8.36434 5.14288 7.25977 5.14288C6.1552 5.14288 5.25977 6.00633 5.25977 7.07145C5.25977 8.13658 6.1552 9.00003 7.25977 9.00003Z" stroke="#AEAEAE" stroke-width="1.5" stroke-linecap="round" stroke-linejoin="round"/>
<path d="M9.34233 4.78016C9.39126 4.27854 9.79464 3.90359 10.2868 3.88277C12.1638 3.80338 13.8977 3.91895 15.2905 4.08293C17.2492 4.31355 18.5931 6.06851 18.5931 8.08613V8.26528C18.5931 8.67105 18.2717 8.99997 17.8751 8.99997H10.0508C9.70324 8.99997 9.40741 8.74522 9.36764 8.39183C9.3162 7.93485 9.25977 7.25379 9.25977 6.46543C9.25977 5.80575 9.29929 5.22116 9.34233 4.78016Z" stroke="#AEAEAE" stroke-width="1.5" stroke-linecap="round" stroke-linejoin="round"/>
<path d="M3.65823 1.3017C4.10266 1.34128 4.36376 1.78534 4.38308 2.32881C4.41658 3.27106 4.45653 5.19283 4.45653 9.00003C4.45653 9.54682 4.45804 9.97477 4.45653 10.4465C5.39198 10.4079 7.14735 10.4465 10.3808 10.4465H17.8779C18.3153 10.4465 18.753 11.0374 18.75 11.5714C18.8334 13.6562 18.7755 14.0681 18.75 14.7857C18.6982 16.2424 17.8779 16.7143 16.875 16.7143C15.8721 16.7143 15.625 15.4286 15.625 14.7857C15.625 14.2924 15.5738 13.2586 15.5738 13.2586C15.5738 13.2586 13.6349 13.3393 10.3808 13.3393C7.12428 13.3393 5.52342 13.3781 4.59309 13.3393C4.57867 14.4981 4.61061 14.2928 4.59309 14.7857C4.59309 15.4286 4.59309 16.7143 3.33319 16.7143C1.875 16.7143 1.40663 16.0714 1.33327 14.7857C1.29977 13.8435 1.33319 12.8072 1.33319 9.00003C1.33319 5.19283 1.37313 3.27106 1.40663 2.32881C1.42596 1.78534 1.55542 1.3253 1.99985 1.28572C2.11148 1.27579 3.12492 1.28574 3.27167 1.28574C3.41841 1.28574 3.5466 1.29177 3.65823 1.3017Z" stroke="#AEAEAE" stroke-width="1.5" stroke-linecap="round" stroke-linejoin="round"/>
</g>
<defs>
<clipPath id="clip0_165_2">
<rect width="20" height="18" fill="white"/>
</clipPath>
</defs>
</svg>
